<?xml version="1.0" encoding="utf-8"?>
<!-- Generator: Adobe Illustrator 23.0.6, SVG Export Plug-In . SVG Version: 6.00 Build 0)  -->
<svg version="1.1" id="Layer_1" xmlns="http://www.w3.org/2000/svg" xmlns:xlink="http://www.w3.org/1999/xlink" x="0px" y="0px"
	 viewBox="0 0 400 59.5" style="enable-background:new 0 0 400 59.5;" xml:space="preserve">
<style type="text/css">
	.st0{fill:#94A73B;}
	.st1{fill:#FFFFFF;}
</style>
<path class="st0" d="M371.8,57.3h-337c-15.1,0-27.5-12.4-27.5-27.5v0c0-15.1,12.4-27.5,27.5-27.5h337c15.1,0,27.5,12.4,27.5,27.5v0
	C399.3,44.9,387,57.3,371.8,57.3z"/>
<g>
	<path class="st1" d="M54.8,39.2V22h7.6c1.5,0,2.7,0.2,3.5,0.5s1.4,0.9,1.9,1.6s0.7,1.6,0.7,2.6c0,1.2-0.4,2.2-1.2,3.1
		s-2,1.4-3.7,1.6c0.6,0.3,1.1,0.6,1.4,0.9c0.7,0.6,1.3,1.4,1.9,2.3l3,4.7h-2.9l-2.3-3.6c-0.7-1-1.2-1.8-1.6-2.4s-0.8-0.9-1.2-1.1
		s-0.7-0.4-1-0.5c-0.3-0.1-0.7-0.1-1.3-0.1h-2.6v7.6H54.8z M57.1,29.6H62c1,0,1.9-0.1,2.4-0.3s1-0.6,1.3-1s0.5-1,0.5-1.5
		c0-0.8-0.3-1.5-0.9-2s-1.5-0.8-2.8-0.8h-5.4V29.6z"/>
	<path class="st1" d="M72.2,39.2V22h12.4v2H74.4v5.3h9.5v2h-9.5v5.8H85v2H72.2z"/>
	<path class="st1" d="M101.2,37.3c1.1,0.7,2,1.3,2.9,1.6l-0.7,1.6c-1.2-0.4-2.5-1.1-3.7-2.1c-1.3,0.7-2.7,1.1-4.2,1.1
		c-1.6,0-3-0.4-4.2-1.1s-2.2-1.8-2.9-3.2s-1-2.9-1-4.6c0-1.7,0.3-3.2,1-4.6s1.7-2.4,2.9-3.2s2.7-1.1,4.3-1.1c1.6,0,3,0.4,4.3,1.1
		s2.2,1.8,2.9,3.2s1,2.9,1,4.6c0,1.4-0.2,2.7-0.6,3.8S102,36.5,101.2,37.3z M96.1,34.4c1.3,0.4,2.4,0.9,3.2,1.6c1.3-1.2,2-3.1,2-5.5
		c0-1.4-0.2-2.6-0.7-3.6s-1.2-1.8-2.1-2.4s-1.9-0.9-3.1-0.9c-1.7,0-3.1,0.6-4.2,1.7s-1.7,2.9-1.7,5.2c0,2.2,0.6,3.9,1.7,5.1
		s2.5,1.8,4.2,1.8c0.8,0,1.6-0.2,2.3-0.5c-0.7-0.5-1.5-0.8-2.3-1L96.1,34.4z"/>
	<path class="st1" d="M118.1,22h2.3v9.9c0,1.7-0.2,3.1-0.6,4.1s-1.1,1.8-2.1,2.5s-2.4,1-4,1c-1.6,0-2.9-0.3-3.9-0.8
		s-1.8-1.4-2.2-2.4s-0.7-2.5-0.7-4.3V22h2.3v9.9c0,1.5,0.1,2.6,0.4,3.3s0.8,1.3,1.4,1.6s1.5,0.6,2.5,0.6c1.7,0,2.9-0.4,3.6-1.1
		s1.1-2.2,1.1-4.4V22z"/>
	<path class="st1" d="M124.2,39.2V22h12.4v2h-10.1v5.3h9.5v2h-9.5v5.8H137v2H124.2z"/>
	<path class="st1" d="M139.4,33.6l2.1-0.2c0.1,0.9,0.3,1.6,0.7,2.1s0.9,1,1.7,1.3s1.7,0.5,2.6,0.5c0.9,0,1.6-0.1,2.3-0.4
		s1.2-0.6,1.5-1.1s0.5-0.9,0.5-1.5c0-0.5-0.2-1-0.5-1.4s-0.8-0.7-1.5-1c-0.5-0.2-1.5-0.5-3.1-0.8c-1.6-0.4-2.7-0.7-3.3-1.1
		c-0.8-0.4-1.4-1-1.8-1.6s-0.6-1.3-0.6-2.1c0-0.9,0.2-1.7,0.7-2.4s1.2-1.3,2.2-1.7s2-0.6,3.2-0.6c1.3,0,2.4,0.2,3.4,0.6
		s1.7,1,2.2,1.8s0.8,1.7,0.8,2.7l-2.2,0.2c-0.1-1.1-0.5-1.9-1.2-2.5s-1.7-0.8-3-0.8c-1.4,0-2.4,0.3-3,0.8s-0.9,1.1-0.9,1.8
		c0,0.6,0.2,1.1,0.7,1.5c0.4,0.4,1.6,0.8,3.4,1.2s3.1,0.8,3.8,1.1c1,0.5,1.7,1,2.2,1.8s0.7,1.5,0.7,2.4c0,0.9-0.3,1.8-0.8,2.6
		s-1.3,1.4-2.3,1.9s-2.1,0.7-3.3,0.7c-1.6,0-2.9-0.2-3.9-0.7s-1.9-1.1-2.5-2S139.4,34.8,139.4,33.6z"/>
	<path class="st1" d="M160.5,39.2V24h-5.7v-2h13.6v2h-5.7v15.2H160.5z"/>
	<path class="st1" d="M173.8,39.2l6.6-17.2h2.4l7,17.2h-2.6l-2-5.2h-7.2l-1.9,5.2H173.8z M178.8,32.1h5.8l-1.8-4.8
		c-0.5-1.4-1-2.6-1.2-3.6c-0.2,1.1-0.5,2.2-0.9,3.3L178.8,32.1z"/>
	<path class="st1" d="M197.1,39.2V22h5.9c1.3,0,2.4,0.1,3.1,0.2c1,0.2,1.8,0.6,2.5,1.2c0.9,0.8,1.6,1.7,2,2.9s0.7,2.6,0.7,4.1
		c0,1.3-0.2,2.5-0.5,3.5s-0.7,1.8-1.2,2.5s-1,1.2-1.6,1.6s-1.3,0.7-2.1,0.9s-1.7,0.3-2.8,0.3H197.1z M199.3,37.1h3.7
		c1.1,0,2-0.1,2.7-0.3s1.2-0.5,1.5-0.9c0.5-0.5,1-1.3,1.3-2.2s0.5-2,0.5-3.3c0-1.8-0.3-3.2-0.9-4.1s-1.3-1.6-2.2-1.9
		c-0.6-0.2-1.6-0.4-2.9-0.4h-3.6V37.1z"/>
	<path class="st1" d="M214.4,39.2V22h12.4v2h-10.1v5.3h9.5v2h-9.5v5.8h10.5v2H214.4z"/>
	<path class="st1" d="M230.3,39.2V22h3.4l4.1,12.2c0.4,1.1,0.6,2,0.8,2.5c0.2-0.6,0.5-1.5,0.9-2.8l4.1-12h3.1v17.2h-2.2V24.8
		l-5,14.4h-2.1l-5-14.6v14.6H230.3z"/>
	<path class="st1" d="M249.7,30.8c0-2.9,0.8-5.1,2.3-6.7s3.5-2.4,5.9-2.4c1.6,0,3,0.4,4.3,1.1s2.2,1.8,2.9,3.2s1,2.9,1,4.6
		c0,1.7-0.4,3.3-1.1,4.7s-1.7,2.4-3,3.1s-2.7,1.1-4.2,1.1c-1.6,0-3.1-0.4-4.3-1.2s-2.2-1.8-2.9-3.2S249.7,32.3,249.7,30.8z
		 M252.1,30.8c0,2.1,0.6,3.7,1.7,4.9s2.5,1.8,4.2,1.8c1.7,0,3.1-0.6,4.2-1.8s1.7-2.9,1.7-5.1c0-1.4-0.2-2.6-0.7-3.7
		s-1.2-1.9-2.1-2.4s-1.9-0.9-3.1-0.9c-1.6,0-3,0.6-4.2,1.7S252.1,28.2,252.1,30.8z"/>
	<path class="st1" d="M279.7,39.2V24H274v-2h13.6v2h-5.7v15.2H279.7z"/>
	<path class="st1" d="M288.8,30.8c0-2.9,0.8-5.1,2.3-6.7s3.5-2.4,5.9-2.4c1.6,0,3,0.4,4.3,1.1s2.2,1.8,2.9,3.2s1,2.9,1,4.6
		c0,1.7-0.4,3.3-1.1,4.7s-1.7,2.4-3,3.1s-2.7,1.1-4.2,1.1c-1.6,0-3.1-0.4-4.3-1.2c-1.3-0.8-2.2-1.8-2.9-3.2S288.8,32.3,288.8,30.8z
		 M291.2,30.8c0,2.1,0.6,3.7,1.7,4.9c1.1,1.2,2.5,1.8,4.2,1.8c1.7,0,3.1-0.6,4.2-1.8s1.7-2.9,1.7-5.1c0-1.4-0.2-2.6-0.7-3.7
		s-1.2-1.9-2.1-2.4s-1.9-0.9-3.1-0.9c-1.6,0-3,0.6-4.2,1.7C291.8,26.4,291.2,28.2,291.2,30.8z"/>
	<path class="st1" d="M308.2,39.2V22h5.9c1.3,0,2.4,0.1,3.1,0.2c1,0.2,1.8,0.6,2.5,1.2c0.9,0.8,1.6,1.7,2,2.9s0.7,2.6,0.7,4.1
		c0,1.3-0.2,2.5-0.5,3.5s-0.7,1.8-1.2,2.5s-1,1.2-1.6,1.6s-1.3,0.7-2.1,0.9s-1.7,0.3-2.8,0.3H308.2z M310.5,37.1h3.7
		c1.1,0,2-0.1,2.7-0.3s1.2-0.5,1.5-0.9c0.5-0.5,1-1.3,1.3-2.2s0.5-2,0.5-3.3c0-1.8-0.3-3.2-0.9-4.1s-1.3-1.6-2.2-1.9
		c-0.6-0.2-1.6-0.4-2.9-0.4h-3.6V37.1z"/>
	<path class="st1" d="M323.6,39.2l6.6-17.2h2.4l7,17.2h-2.6l-2-5.2h-7.2l-1.9,5.2H323.6z M328.6,32.1h5.8l-1.8-4.8
		c-0.5-1.4-1-2.6-1.2-3.6c-0.2,1.1-0.5,2.2-0.9,3.3L328.6,32.1z"/>
	<path class="st1" d="M344.6,39.2v-7.3L338,22h2.8l3.4,5.2c0.6,1,1.2,1.9,1.7,2.9c0.5-0.9,1.1-1.9,1.9-3l3.3-5.1h2.6l-6.9,9.9v7.3
		H344.6z"/>
</g>
</svg>
