<?xml version="1.0" encoding="iso-8859-1"?>
<!-- Generator: Adobe Illustrator 19.0.0, SVG Export Plug-In . SVG Version: 6.00 Build 0)  -->
<svg version="1.1" id="Layer_1" xmlns="http://www.w3.org/2000/svg" xmlns:xlink="http://www.w3.org/1999/xlink" x="0px" y="0px"
	 viewBox="0 0 512 512" style="enable-background:new 0 0 512 512;" xml:space="preserve" fill="#2D58A7">
<g>
	<g>
		<path d="M476.251,102.763C434.226,38.415,363.321,0,286.581,0c-5.633,0-10.199,4.567-10.199,10.199v216.198
			c0,3.742,2.05,7.184,5.34,8.967c1.52,0.824,3.19,1.232,4.859,1.232c1.943,0,3.883-0.555,5.57-1.654l181.13-118.058
			c2.267-1.478,3.854-3.797,4.412-6.445C478.25,107.789,477.732,105.028,476.251,102.763z M296.781,207.575V20.647
			c62.49,3.06,119.823,34.125,156.601,84.856L296.781,207.575z"/>
	</g>
</g>
<g>
	<g>
		<path d="M445.669,161.968c-3.079-4.712-9.393-6.04-14.109-2.967l-165.362,107.78V69.407c0-5.632-4.566-10.199-10.199-10.199
			c-51.663,0-102.203,17.873-142.309,50.329C60.252,152.78,29.603,216.954,29.603,285.604c0,60.473,23.549,117.326,66.31,160.087
			C138.674,488.45,195.527,512,256,512s117.326-23.55,160.087-66.31c42.76-42.761,66.31-99.614,66.31-160.087
			C482.397,241.509,469.696,198.756,445.669,161.968z M245.801,79.861v176.898L134.607,119.18
			C166.945,95.592,205.772,81.862,245.801,79.861z M256,491.602c-113.588,0-205.998-92.41-205.998-205.998
			c0-59.054,24.927-114.47,68.743-153.598l129.323,160.01c3.288,4.067,9.12,4.988,13.502,2.134l172.383-112.357
			c18.379,31.43,28.047,67.108,28.047,103.812C461.998,399.192,369.588,491.602,256,491.602z"/>
	</g>
</g>
<g>
	<g>
		<path d="M402.698,228.722c-3.076-4.721-9.394-6.055-14.114-2.979L322.2,268.984c-4.719,3.074-6.054,9.392-2.979,14.113
			c1.955,3.002,5.222,4.633,8.556,4.633c1.908,0,3.839-0.534,5.558-1.654l66.385-43.241
			C404.438,239.761,405.773,233.442,402.698,228.722z"/>
	</g>
</g>
<g>
	<g>
		<path d="M434.094,208.269c-3.076-4.719-9.392-6.054-14.113-2.978l-3.588,2.338c-4.719,3.075-6.053,9.393-2.978,14.114
			c1.955,3.001,5.222,4.632,8.555,4.632c1.908,0,3.84-0.534,5.558-1.654l3.588-2.338
			C435.835,219.307,437.169,212.989,434.094,208.269z"/>
	</g>
</g>
<g>
</g>
<g>
</g>
<g>
</g>
<g>
</g>
<g>
</g>
<g>
</g>
<g>
</g>
<g>
</g>
<g>
</g>
<g>
</g>
<g>
</g>
<g>
</g>
<g>
</g>
<g>
</g>
<g>
</g>
</svg>
