<?xml version="1.0" encoding="utf-8"?>
<!-- Generator: Adobe Illustrator 23.0.6, SVG Export Plug-In . SVG Version: 6.00 Build 0)  -->
<svg version="1.1" id="Layer_1" xmlns="http://www.w3.org/2000/svg" xmlns:xlink="http://www.w3.org/1999/xlink" x="0px" y="0px"
	 viewBox="0 0 136 136" style="enable-background:new 0 0 136 136;" xml:space="preserve">
<style type="text/css">
	.st0{fill:#2D58A7;}
</style>
<g id="surface1">
	<path class="st0" d="M40.8,27.6H95c1,0,1.9-0.8,1.9-1.9c0-1-0.8-1.9-1.9-1.9H40.8c-1,0-1.9,0.8-1.9,1.9
		C39,26.8,39.8,27.6,40.8,27.6z"/>
	<path class="st0" d="M19.5,18.6v111.6c0,3.2,2.6,5.8,5.8,5.8h85.2c3.2,0,5.8-2.6,5.8-5.8V18.6c0-3.2-2.6-5.8-5.8-5.8H82.2
		c-0.9-7.9-8.1-13.6-16-12.6c-6.6,0.8-11.8,6-12.6,12.6H25.3C22.1,12.7,19.5,15.3,19.5,18.6z M112.6,130.2c0,1.2-0.9,2.1-2.1,2.1
		H25.3c-1.2,0-2.1-0.9-2.1-2.1V36.5h89.5L112.6,130.2z M67.9,3.7c5.3,0,9.7,3.8,10.6,9H57.4C58.2,7.5,62.7,3.7,67.9,3.7z
		 M110.5,16.4c1.2,0,2.1,0.9,2.1,2.1v14.3H23.2V18.6c0-1.2,0.9-2.1,2.1-2.1H110.5z"/>
	<path class="st0" d="M57,57H101c1,0,1.9-0.8,1.9-1.9c0-1-0.8-1.9-1.9-1.9H57c-1,0-1.9,0.8-1.9,1.9C55.2,56.2,56,57,57,57z"/>
	<path class="st0" d="M57,76.4H101c1,0,1.9-0.8,1.9-1.9c0-1-0.8-1.9-1.9-1.9H57c-1,0-1.9,0.8-1.9,1.9C55.2,75.6,56,76.4,57,76.4z"/>
	<path class="st0" d="M57,95.8H101c1,0,1.9-0.8,1.9-1.9c0-1-0.8-1.9-1.9-1.9H57c-1,0-1.9,0.8-1.9,1.9C55.2,95,56,95.8,57,95.8z"/>
	<path class="st0" d="M57,115.2H101c1,0,1.9-0.8,1.9-1.9c0-1-0.8-1.9-1.9-1.9H57c-1,0-1.9,0.8-1.9,1.9C55.2,114.3,56,115.2,57,115.2
		z"/>
	<path class="st0" d="M38.5,58.1c0.3,0.4,0.7,0.7,1.2,0.8H40c0.4,0,0.8-0.1,1.1-0.4L53,49.2c0.9-0.5,1.2-1.7,0.7-2.5
		c-0.5-0.9-1.6-1.2-2.5-0.7c-0.2,0.1-0.3,0.2-0.4,0.3l-10.3,8.1l-1.8-2.6c-0.6-0.8-1.7-1.1-2.6-0.5c-0.8,0.6-1.1,1.7-0.5,2.6
		L38.5,58.1z"/>
	<path class="st0" d="M38.5,77.2c0.3,0.4,0.7,0.7,1.2,0.8H40c0.4,0,0.8-0.1,1.1-0.4L53,68.3c0.8-0.6,1-1.8,0.4-2.6
		c-0.6-0.8-1.8-1-2.6-0.4c0,0-0.1,0-0.1,0.1l-10.3,8.1l-1.8-2.6c-0.5-0.9-1.6-1.3-2.5-0.8c-0.9,0.5-1.3,1.6-0.8,2.5
		c0.1,0.1,0.2,0.3,0.3,0.4L38.5,77.2z"/>
	<path class="st0" d="M38.5,96.3c0.3,0.4,0.7,0.7,1.2,0.8H40c0.4,0,0.8-0.1,1.1-0.4L53,87.4c0.8-0.6,1-1.8,0.4-2.6
		c-0.6-0.8-1.8-1-2.6-0.4c0,0-0.1,0-0.1,0.1l-10.3,8L38.6,90c-0.6-0.8-1.8-1-2.6-0.5c-0.8,0.6-1,1.8-0.5,2.6L38.5,96.3z"/>
	<path class="st0" d="M38.5,115.7c0.3,0.4,0.7,0.7,1.2,0.8H40c0.4,0,0.8-0.1,1.1-0.4l11.8-9.3c0.9-0.5,1.1-1.7,0.6-2.6
		c-0.6-0.9-1.7-1.1-2.6-0.6c-0.1,0.1-0.2,0.1-0.3,0.2L40.4,112l-1.8-2.6c-0.6-0.8-1.7-1-2.6-0.5c-0.8,0.6-1.1,1.7-0.5,2.6
		L38.5,115.7z"/>
</g>
</svg>
