<?xml version="1.0" encoding="utf-8"?>
<!-- Generator: Adobe Illustrator 23.0.3, SVG Export Plug-In . SVG Version: 6.00 Build 0)  -->
<svg version="1.1" id="Layer_1" xmlns="http://www.w3.org/2000/svg" xmlns:xlink="http://www.w3.org/1999/xlink" x="0px" y="0px"
	 viewBox="0 0 346.5 54.4" style="enable-background:new 0 0 346.5 54.4;" xml:space="preserve">
<style type="text/css">
	.st0{fill:#166EB7;}
	.st1{fill:#A3A5A8;}
	.st2{fill:#1BA3D1;}
	.st3{fill:#FFFFFF;}
</style>
<rect x="4.7" y="4.1" class="st0" width="53.5" height="46.5"/>
<rect x="57.7" y="4.1" class="st1" width="53.5" height="46.5"/>
<rect x="110.8" y="4.1" class="st2" width="53.6" height="46.5"/>
<g>
	<path class="st0" d="M174.7,27.7l0,10.9c0,0.1-0.1,0.3-0.3,0.3h-2.7c-0.1,0-0.3-0.1-0.3-0.3l0.1-12l-0.1-12.4
		c0-0.1,0.1-0.3,0.3-0.3h4.2c0.2,0,0.3,0.1,0.4,0.3l8.3,20.5l8.1-20.5c0-0.1,0.2-0.3,0.3-0.3h3.9c0.1,0,0.3,0.1,0.3,0.3l-0.1,12.4
		l0.1,12c0,0.1-0.1,0.3-0.3,0.3h-3c-0.1,0-0.3-0.1-0.3-0.3l0-10.9l0.1-6.1l0-3.1l-8.1,20.2c0,0.1-0.2,0.3-0.3,0.3h-2.3
		c-0.1,0-0.3-0.1-0.4-0.3l-8.4-20.4l0.1,3.4L174.7,27.7z"/>
	<path class="st0" d="M218.4,32.6c0.1,0,0.3,0.1,0.2,0.3c-0.6,3.8-3.5,6.6-8.4,6.6c-6,0-9.2-4-9.2-9.6c0-5.7,3.4-9.7,9-9.7
		c5.6,0,8.9,3.7,9,9.8c0,0.1-0.1,0.3-0.3,0.3h-14.3c0.1,4.4,2.1,6.8,5.8,6.8c2.9,0,4.6-1.5,5.1-4.2c0-0.1,0.1-0.3,0.3-0.3
		C215.7,32.6,218.4,32.6,218.4,32.6z M210.1,22.5c-3.2,0-5,2-5.5,5.4h10.8C215.2,25,213.5,22.5,210.1,22.5z"/>
	<path class="st0" d="M222.9,38.9c-0.2,0-0.3-0.1-0.3-0.3l0.1-8.1l-0.1-9.7c0-0.1,0.1-0.3,0.3-0.3h2.8c0.2,0,0.3,0.1,0.3,0.3
		l-0.1,2.8c1.2-1.8,3.3-3.5,6.4-3.5c3.9,0,6.4,2.5,6.4,7.3v3.7l0.1,7.6c0,0.1-0.1,0.3-0.3,0.3h-2.9c-0.1,0-0.3-0.1-0.3-0.3l0.1-7.6
		v-3.5c0-3.3-1.6-4.8-4.1-4.8c-2.5,0-4.6,1.9-5.3,5.6v2.8l0.1,7.6c0,0.1-0.1,0.3-0.3,0.3L222.9,38.9L222.9,38.9z"/>
	<path class="st0" d="M249.2,39.4c-3.9,0-6.4-2.5-6.4-7.3v-3.6l0-7.6c0-0.1,0.1-0.3,0.3-0.3h2.9c0.1,0,0.3,0.1,0.3,0.3l-0.1,7.6V32
		c0,3.3,1.7,4.8,4.1,4.8c2.5,0,4.6-1.9,5.3-5.6v-2.8l0-7.6c0-0.1,0.1-0.3,0.3-0.3h2.9c0.2,0,0.3,0.1,0.3,0.3l-0.1,8.1l0,9.7
		c0,0.1-0.1,0.3-0.3,0.3h-2.8c-0.2,0-0.3-0.1-0.3-0.3l0.1-2.9C254.4,37.7,252.3,39.4,249.2,39.4z"/>
	<path class="st0" d="M266.5,27.7l0,10.9c0,0.1-0.1,0.3-0.3,0.3h-2.7c-0.1,0-0.3-0.1-0.3-0.3l0.1-12l-0.1-12.4
		c0-0.1,0.1-0.3,0.3-0.3h4.2c0.1,0,0.3,0.1,0.4,0.3l8.3,20.5l8.1-20.5c0-0.1,0.2-0.3,0.3-0.3h3.9c0.2,0,0.3,0.1,0.3,0.3L289,26.7
		l0.1,12c0,0.1-0.1,0.3-0.3,0.3h-2.9c-0.1,0-0.3-0.1-0.3-0.3l0-10.9l0.1-6.1l0-3.1l-8.1,20.2c0,0.1-0.2,0.3-0.3,0.3h-2.3
		c-0.1,0-0.3-0.1-0.4-0.3l-8.4-20.4l0.1,3.4L266.5,27.7z"/>
	<path class="st0" d="M307.2,38.9c-0.1,0-0.3-0.1-0.3-0.3L307,36c-1.3,2.1-3.4,3.3-6.1,3.3c-5.2,0-7.9-4.2-7.9-9.5
		c0-5.3,2.9-9.6,8-9.6c2.7,0,4.8,1.1,6,3.1l-0.1-2.5c0-0.1,0.1-0.3,0.3-0.3h2.9c0.1,0,0.3,0.1,0.3,0.3l-0.1,8.8l0.1,9.1
		c0,0.1-0.1,0.3-0.3,0.3H307.2z M301.7,36.9c3.3,0,5.3-2.3,5.4-7c0-4.4-1.8-7.1-4.9-7.3c-0.1,0-0.5,0-0.6,0
		c-3.5,0.1-5.1,2.9-5.1,6.9C296.4,33.9,298.1,36.9,301.7,36.9z"/>
	<path class="st0" d="M327,38.9c-0.1,0-0.3-0.1-0.4-0.2l-4.8-7.5l-4.8,7.5c-0.1,0.1-0.3,0.2-0.4,0.2h-3c-0.1,0-0.2-0.1-0.1-0.2
		l6.2-9.5l-5.7-8.4c-0.1-0.1,0-0.2,0.1-0.2h3.3c0.1,0,0.3,0.1,0.4,0.2l4.3,6.7l4.2-6.7c0.1-0.1,0.3-0.2,0.4-0.2h2.9
		c0.1,0,0.2,0.1,0.1,0.2l-5.5,8.5l6.2,9.4c0.1,0.1,0,0.2-0.1,0.2C330.3,38.9,327,38.9,327,38.9z"/>
</g>
<g>
	<path class="st0" d="M337.4,13.6c-2.8,0-4.6-1.6-4.6-4c0-2.5,1.8-4,4.6-4c2.8,0,4.6,1.5,4.6,4C342.1,12,340.2,13.6,337.4,13.6z
		 M337.4,12.9c2.4,0,3.7-1.3,3.7-3.4c0-2.1-1.4-3.4-3.7-3.4s-3.8,1.3-3.8,3.4C333.7,11.7,335.1,12.9,337.4,12.9z M338.1,11.1
		l-0.9-1.1h-0.9l0,1.7c0,0.1-0.1,0.2-0.2,0.2h-0.6c-0.1,0-0.2-0.1-0.2-0.2V7.4c0-0.1,0.1-0.2,0.2-0.2h2c1.4,0,2.3,0.5,2.3,1.4
		c0,0.7-0.5,1.2-1.4,1.3l1.4,1.8c0.1,0.1,0,0.1-0.1,0.1h-0.8c-0.1,0-0.3,0-0.3-0.1L338.1,11.1z M337.4,7.8h-1.1l0,1.5h1.2
		c0.7,0,1.2-0.2,1.2-0.8S338.3,7.8,337.4,7.8z"/>
</g>
<g>
	<path class="st3" d="M40.1,14.1c-1.3,0-3,3.4-3,6c0,1.7,0.6,2.6,1.4,3.1c0.7,0.4,1.1,1.1,1,1.9l-1.2,12.6c0,0.5,0.1,1,0.4,1.3
		c0.3,0.4,0.8,0.6,1.3,0.6s1-0.2,1.3-0.6s0.5-0.8,0.4-1.3l-1.2-12.6c-0.1-0.8,0.3-1.5,1-1.9c0.9-0.4,1.4-1.4,1.4-3.1
		C43.1,17.5,41.5,14.1,40.1,14.1z"/>
	<path class="st3" d="M24.3,14.1c-0.2,0-0.4,0.2-0.4,0.4v5.2c0,0.2-0.2,0.4-0.4,0.4S23,19.9,23,19.7v-5.2c0-0.2-0.2-0.4-0.4-0.4l0,0
		c-0.2,0-0.4,0.2-0.4,0.4v5.2c0,0.2-0.2,0.4-0.4,0.4s-0.4-0.2-0.4-0.4v-5.2c0-0.2-0.2-0.4-0.4-0.4h0c-0.2,0-0.4,0.2-0.4,0.4v5.2
		c0,0.2-0.2,0.4-0.4,0.4s-0.4-0.2-0.4-0.4v-5.2c0-0.2-0.2-0.4-0.4-0.4c-0.2,0-0.4,0.2-0.4,0.4c0,1.3,0,5.5,0,5.6
		c0,1.7,0.6,2.6,1.4,3.1c0.7,0.4,1.1,1.1,1,1.9L20,37.7c0,0.5,0.1,1,0.4,1.3c0.3,0.4,0.8,0.6,1.3,0.6s1-0.2,1.3-0.6
		c0.3-0.4,0.5-0.8,0.4-1.3l-1.2-12.6c-0.1-0.8,0.3-1.5,1-1.9c0.9-0.4,1.4-1.4,1.4-3.1c0-0.2,0-4.3,0-5.6
		C24.7,14.3,24.5,14.1,24.3,14.1z"/>
	<path class="st3" d="M31.8,26.1c0.2,0,0.3-0.1,0.3-0.3V14.6c0-0.3-0.2-0.5-0.5-0.5c-0.2,0-0.5,0.2-0.5,0.4l-1.8,6.1
		c-0.5,1.8-0.2,3.7,0.9,5.3c0.1,0.1,0.3,0.2,0.5,0.2l-1.1,11.6c0,0.5,0.1,1,0.4,1.3c0.3,0.4,0.8,0.6,1.3,0.6s1-0.2,1.3-0.6
		s0.5-0.8,0.4-1.3L31.8,26.1z"/>
</g>
<g>
	<g>
		<g>
			<path class="st3" d="M101.4,37.3L101.4,37.3C101.4,37.2,101.4,37.2,101.4,37.3C101.4,37.2,101.4,37.2,101.4,37.3
				c0-0.1,0-0.1,0-0.1v0c0,0,0,0,0,0v0l-2.6-5.1V15c0-0.5-0.4-0.9-0.9-0.9H71.6c-0.5,0-0.9,0.4-0.9,0.9v17l-2.6,5.2v0c0,0,0,0,0,0v0
				c0,0,0,0,0,0c0,0,0,0,0,0c0,0,0,0,0,0.1v0c0,0,0,0,0,0v1.2c0,0.6,0.5,1.1,1.1,1.1h31.1c0.6,0,1.1-0.5,1.1-1.1V37.3
				C101.4,37.3,101.4,37.3,101.4,37.3z M71.7,15h26.1v16.5H71.7V15z M71.5,32.5h26.4l2.2,4.3H89.3l-0.5-2c-0.1-0.4-0.5-0.7-0.9-0.7
				h-6.5c-0.4,0-0.8,0.3-0.9,0.7l-0.5,2H69.3L71.5,32.5z M88.3,36.8H81l0.5-1.7h6.4L88.3,36.8z M100.4,38.5c0,0.1-0.1,0.2-0.2,0.2
				H69.1c-0.1,0-0.2-0.1-0.2-0.2v-0.8h31.4L100.4,38.5L100.4,38.5z"/>
		</g>
	</g>
	<g>
		<g>
			<path class="st3" d="M96.2,24.1c-0.3,0-0.5,0.2-0.5,0.5v5h-22v-5c0-0.3-0.2-0.5-0.5-0.5s-0.5,0.2-0.5,0.5v5.2
				c0,0.4,0.3,0.8,0.8,0.8h22.4c0.4,0,0.8-0.3,0.8-0.8v-5.2C96.7,24.3,96.5,24.1,96.2,24.1z"/>
		</g>
	</g>
	<g>
		<g>
			<path class="st3" d="M95.9,16H73.5c-0.4,0-0.8,0.3-0.8,0.8V22c0,0.3,0.2,0.5,0.5,0.5s0.5-0.2,0.5-0.5v-5h22v5
				c0,0.3,0.2,0.5,0.5,0.5s0.5-0.2,0.5-0.5v-5.2C96.7,16.4,96.3,16,95.9,16z"/>
		</g>
	</g>
</g>
<g>
	<g>
		<path class="st3" d="M123.8,33.9v4.7c0,0.3,0.2,0.5,0.5,0.5h3.6c0.3,0,0.5-0.2,0.5-0.5v-8.3l-2.6,2.6
			C125.2,33.5,124.5,33.9,123.8,33.9z"/>
		<path class="st3" d="M130.2,30.3v8.3c0,0.3,0.2,0.5,0.5,0.5h3.6c0.3,0,0.5-0.2,0.5-0.5v-4.9c-0.8,0-1.6-0.3-2.2-0.9L130.2,30.3z"
			/>
		<path class="st3" d="M136.7,33.2v5.4c0,0.3,0.2,0.5,0.5,0.5h3.6c0.3,0,0.5-0.2,0.5-0.5v-10l-4.2,4.2
			C137.1,32.9,136.9,33.1,136.7,33.2z"/>
		<path class="st3" d="M147.6,22.5l-4.3,4.3v11.8c0,0.3,0.2,0.5,0.5,0.5h3.6c0.3,0,0.5-0.2,0.5-0.5V22.8
			C147.8,22.7,147.7,22.6,147.6,22.5L147.6,22.5z"/>
		<path class="st3" d="M150.5,14.8c-0.2-0.2-0.4-0.3-0.8-0.3c0,0-0.1,0-0.1,0c-1.7,0.1-3.4,0.2-5.1,0.2c-0.2,0-0.5,0-0.8,0.3
			c-0.1,0.1-0.1,0.2-0.2,0.3c-0.3,0.5,0.1,0.9,0.3,1.1l0.4,0.4c0.3,0.3,0.6,0.6,0.9,0.9L135,27.9l-4.6-4.6c-0.3-0.3-0.6-0.4-1-0.4
			c-0.4,0-0.8,0.1-1,0.4l-6.1,6.1c-0.6,0.6-0.6,1.5,0,2.1l0.3,0.3c0.3,0.3,0.6,0.4,1,0.4c0.4,0,0.8-0.2,1-0.4l4.8-4.8l4.6,4.6
			c0.3,0.3,0.6,0.4,1,0.4s0.8-0.1,1-0.4L147.5,20l1.3,1.3c0.1,0.1,0.4,0.4,0.7,0.4c0.1,0,0.3,0,0.4-0.1c0.1,0,0.2-0.1,0.3-0.2
			c0.3-0.3,0.3-0.6,0.3-0.8c0.1-1.1,0.1-2.2,0.1-3.3l0.1-1.6C150.8,15.3,150.7,15,150.5,14.8z"/>
	</g>
</g>
</svg>
